<?xml version="1.0" encoding="utf-8"?>
<!-- Generator: Adobe Illustrator 16.0.0, SVG Export Plug-In . SVG Version: 6.00 Build 0)  -->
<!DOCTYPE svg PUBLIC "-//W3C//DTD SVG 1.1//EN" "http://www.w3.org/Graphics/SVG/1.1/DTD/svg11.dtd">
<svg version="1.1" id="Layer_1" xmlns="http://www.w3.org/2000/svg" xmlns:xlink="http://www.w3.org/1999/xlink" x="0px" y="0px"
	 viewBox="0 0 24 24" enable-background="new 0 0 24 24" xml:space="preserve">
<g>
	<g>
		<path fill="#010101" d="M6.666,8.844c0.688,2.01,1.98,3.538,3.822,3.538c1.775,0,3.088-1.506,3.797-3.513
			c1.434-1.445,1.096-2.525,0.766-3.041C15.828,2.102,13.449,0,10.354,0C4.805,0,5.771,6.08,5.771,6.08
			c0.006,0.001,0.014,0.001,0.02,0.002C5.537,6.654,5.463,7.616,6.666,8.844z M8.982,4.33L8.578,5.839
			c1.98-0.604,2.246-0.936,2.559-1.163c0.324-0.235,0.598-0.474,0.82-0.691c0.102,0.184,0.23,0.352,0.379,0.504
			c0.146,0.154,0.363-1.397,0.363-1.397s0.547,0.942,0.623,1.247c0.055,0.216,0.4,1.09,0.586,1.17c-0.068,2.885-1.363,5.9-3.42,5.9
			c-1.914,0-3.168-2.615-3.389-5.305C7.625,6.072,8.982,4.33,8.982,4.33z M20.441,10.296c-1.936,0-3.504,1.569-3.504,3.503
			c0,1.936,1.568,3.505,3.504,3.505s3.504-1.569,3.504-3.505C23.945,11.865,22.377,10.296,20.441,10.296z M17.902,13.799
			c0-1.401,1.137-2.538,2.539-2.538c0.465,0,0.895,0.134,1.27,0.353l-3.457,3.456C18.035,14.694,17.902,14.264,17.902,13.799z
			 M20.441,16.339c-0.465,0-0.895-0.134-1.27-0.353l3.457-3.456c0.217,0.375,0.352,0.805,0.352,1.269
			C22.98,15.201,21.842,16.339,20.441,16.339z M9.699,13.881c0,0-0.336,0.863-0.334,0.867l0.533,0.758h1.178l0.535-0.758
			c-0.004-0.014-0.334-0.867-0.334-0.867C11.238,13.887,9.738,13.887,9.699,13.881z M20.441,18.304
			c-2.484,0-4.504-2.021-4.504-4.505c0-0.445,0.084-0.868,0.205-1.274l-2.311-0.851l-0.369,0.9l0.779,0.287L11.4,22.236
			l-0.357-6.295H9.936l-0.354,6.18l-2.811-9.273l0.748-0.273l-0.373-0.899l-2.758,1.015l-0.035,0.015
			c-0.035,0.017-2.664,1.267-3.814,4.295c-0.234,0.617-0.406,1.308-0.484,2.077C2.529,22.08,6.281,23.998,10.48,24h0.02
			c0.227,0,0.451-0.006,0.676-0.018h0.014c3.918-0.201,7.395-2.068,9.734-4.908c-0.027-0.283-0.082-0.544-0.135-0.806
			C20.672,18.278,20.561,18.304,20.441,18.304z M16.762,20.161c-1.154,0.463-2.34,0.545-3.023,0.545c-0.23,0-0.402-0.011-0.5-0.017
			v-0.58c0.031,0.002,1.994,0.232,3.523-0.555V20.161z"/>
	</g>
</g>
</svg>
