<?xml version="1.0" encoding="utf-8"?>
<svg viewBox="0 0 512 512" xmlns="http://www.w3.org/2000/svg">
  <g transform="matrix(1, 0, 0, 1, -0.000005, -0.000025)">
    <g>
      <path d="M0,0v237.268h237.268V0H0z M199.805,199.805H37.463V37.463h162.341V199.805z"/>
    </g>
  </g>
  <g transform="matrix(1, 0, 0, 1, -0.000005, -0.000025)">
    <g>
      <path d="M274.732,0v237.268H512V0H274.732z M474.537,199.805H312.195V37.463h162.341V199.805z"/>
    </g>
  </g>
  <g transform="matrix(1, 0, 0, 1, -0.000005, -0.000025)">
    <g>
      <path d="M0,274.732V512h237.268V274.732H0z M199.805,474.537H37.463V312.195h162.341V474.537z"/>
    </g>
  </g>
  <g transform="matrix(1, 0, 0, 1, -0.000005, -0.000025)">
    <g>
      <path d="M274.732,274.732V512H512V274.732H274.732z M474.537,474.537H312.195V312.195h162.341V474.537z"/>
    </g>
  </g>
  <g transform="matrix(1, 0, 0, 1, -6.000005, -6.000025)"/>
  <g transform="matrix(1, 0, 0, 1, -6.000005, -6.000025)"/>
  <g transform="matrix(1, 0, 0, 1, -6.000005, -6.000025)"/>
  <g transform="matrix(1, 0, 0, 1, -6.000005, -6.000025)"/>
  <g transform="matrix(1, 0, 0, 1, -6.000005, -6.000025)"/>
  <g transform="matrix(1, 0, 0, 1, -6.000005, -6.000025)"/>
  <g transform="matrix(1, 0, 0, 1, -6.000005, -6.000025)"/>
  <g transform="matrix(1, 0, 0, 1, -6.000005, -6.000025)"/>
  <g transform="matrix(1, 0, 0, 1, -6.000005, -6.000025)"/>
  <g transform="matrix(1, 0, 0, 1, -6.000005, -6.000025)"/>
  <g transform="matrix(1, 0, 0, 1, -6.000005, -6.000025)"/>
  <g transform="matrix(1, 0, 0, 1, -6.000005, -6.000025)"/>
  <g transform="matrix(1, 0, 0, 1, -6.000005, -6.000025)"/>
  <g transform="matrix(1, 0, 0, 1, -6.000005, -6.000025)"/>
  <g transform="matrix(1, 0, 0, 1, -6.000005, -6.000025)"/>
</svg>