<?xml version="1.0" encoding="utf-8"?>
<svg viewBox="0 0 512 512" xmlns="http://www.w3.org/2000/svg">
  <path d="M 0.348 0.367 L 0.348 136.731 L 136.712 136.731 L 136.712 0.367 L 0.348 0.367 Z M 115.181 115.2 L 21.879 115.2 L 21.879 21.898 L 115.18 21.898 L 115.18 115.2 Z"/>
  <g transform="matrix(1, 0, 0, 1, -6.000005, -6.000025)"/>
  <g transform="matrix(1, 0, 0, 1, -6.000005, -6.000025)"/>
  <g transform="matrix(1, 0, 0, 1, -6.000005, -6.000025)"/>
  <g transform="matrix(1, 0, 0, 1, -6.000005, -6.000025)"/>
  <g transform="matrix(1, 0, 0, 1, -6.000005, -6.000025)"/>
  <g transform="matrix(1, 0, 0, 1, -6.000005, -6.000025)"/>
  <g transform="matrix(1, 0, 0, 1, -6.000005, -6.000025)"/>
  <g transform="matrix(1, 0, 0, 1, -6.000005, -6.000025)"/>
  <g transform="matrix(1, 0, 0, 1, -6.000005, -6.000025)"/>
  <g transform="matrix(1, 0, 0, 1, -6.000005, -6.000025)"/>
  <g transform="matrix(1, 0, 0, 1, -6.000005, -6.000025)"/>
  <g transform="matrix(1, 0, 0, 1, -6.000005, -6.000025)"/>
  <g transform="matrix(1, 0, 0, 1, -6.000005, -6.000025)"/>
  <g transform="matrix(1, 0, 0, 1, -6.000005, -6.000025)"/>
  <g transform="matrix(1, 0, 0, 1, -6.000005, -6.000025)"/>
  <path d="M 174.976 0.239 L 174.976 136.603 L 511.554 136.603 L 511.554 0.239 L 174.976 0.239 Z M 490.436 115.072 L 197.212 115.072 L 197.212 21.77 L 490.433 21.77 L 490.433 115.072 L 490.436 115.072 Z"/>
  <path d="M 0.348 376.681 L 0.348 513.045 L 136.712 513.045 L 136.712 376.681 L 0.348 376.681 Z M 115.181 491.514 L 21.879 491.514 L 21.879 398.212 L 115.18 398.212 L 115.18 491.514 Z"/>
  <path d="M 174.82 376.553 L 174.82 512.917 L 511.398 512.917 L 511.398 376.553 L 174.82 376.553 Z M 490.28 491.386 L 197.056 491.386 L 197.056 398.084 L 490.277 398.084 L 490.277 491.386 L 490.28 491.386 Z"/>
  <path d="M 0.348 188.524 L 0.348 324.888 L 136.712 324.888 L 136.712 188.524 L 0.348 188.524 Z M 115.181 303.357 L 21.879 303.357 L 21.879 210.055 L 115.18 210.055 L 115.18 303.357 Z"/>
  <path d="M 174.898 188.396 L 174.898 324.76 L 511.476 324.76 L 511.476 188.396 L 174.898 188.396 Z M 490.358 303.229 L 197.134 303.229 L 197.134 209.927 L 490.355 209.927 L 490.355 303.229 L 490.358 303.229 Z"/>
</svg>