<?xml version="1.0" encoding="UTF-8" standalone="no"?>
<svg width="16px" height="18px" viewBox="0 0 16 18" version="1.1" xmlns="http://www.w3.org/2000/svg" xmlns:xlink="http://www.w3.org/1999/xlink">
    <!-- Generator: Sketch 46.2 (44496) - http://www.bohemiancoding.com/sketch -->
    <title>bitornic-xls-icon@svg</title>
    <desc>Created with Sketch.</desc>
    <defs></defs>
    <g id="ui" stroke="none" stroke-width="1" fill="none" fill-rule="evenodd">
        <g transform="translate(-732.000000, -3680.000000)" id="icon-xls">
            <g transform="translate(732.000000, 3680.000000)">
                <path d="M8.42944336,15 L7.21948242,15 L6.05737305,13.1098633 L4.89526367,15 L3.76049805,15 L5.41821289,12.4228516 L3.86645508,10.0029297 L5.03540039,10.0029297 L6.11206055,11.8007812 L7.16821289,10.0029297 L8.30981445,10.0029297 L6.7409668,12.480957 L8.42944336,15 Z M9.05834961,15 L9.05834961,10.0029297 L10.1179199,10.0029297 L10.1179199,14.125 L12.1447754,14.125 L12.1447754,15 L9.05834961,15 Z M15.9626465,13.6123047 C15.9626465,14.0634788 15.8002946,14.418944 15.4755859,14.6787109 C15.1508773,14.9384779 14.6991403,15.0683594 14.1203613,15.0683594 C13.5871555,15.0683594 13.1154806,14.9681 12.7053223,14.7675781 L12.7053223,13.7832031 C13.0425635,13.9335945 13.3279611,14.0395505 13.5615234,14.1010742 C13.7950858,14.162598 14.0087067,14.1933594 14.2023926,14.1933594 C14.4348156,14.1933594 14.6131179,14.1489262 14.7373047,14.0600586 C14.8614915,13.971191 14.923584,13.8390308 14.923584,13.6635742 C14.923584,13.565592 14.8962405,13.4784346 14.8415527,13.4020996 C14.786865,13.3257646 14.7065435,13.252279 14.6005859,13.1816406 C14.4946284,13.1110023 14.2787288,12.9982104 13.9528809,12.8432617 C13.6475408,12.6997063 13.4185392,12.5618496 13.2658691,12.4296875 C13.1131991,12.2975254 12.9912928,12.1437183 12.9001465,11.9682617 C12.8090002,11.7928051 12.7634277,11.587729 12.7634277,11.3530273 C12.7634277,10.9109678 12.9132472,10.5634778 13.2128906,10.3105469 C13.5125341,10.0576159 13.9266738,9.93115234 14.4553223,9.93115234 C14.7150892,9.93115234 14.9628894,9.96191375 15.1987305,10.0234375 C15.4345715,10.0849612 15.6812324,10.1715489 15.9387207,10.2832031 L15.5969238,11.1069336 C15.3303209,10.997558 15.1098642,10.9212242 14.9355469,10.8779297 C14.7612296,10.8346352 14.5897632,10.8129883 14.4211426,10.8129883 C14.2206207,10.8129883 14.0668137,10.8597001 13.9597168,10.953125 C13.8526199,11.0465499 13.7990723,11.1684563 13.7990723,11.3188477 C13.7990723,11.4122726 13.8207192,11.4937334 13.8640137,11.5632324 C13.9073082,11.6327315 13.9762365,11.6999508 14.0708008,11.7648926 C14.1653651,11.8298343 14.3892398,11.9466137 14.7424316,12.1152344 C15.2095564,12.3385428 15.5297029,12.5624175 15.7028809,12.7868652 C15.8760588,13.011313 15.9626465,13.2864567 15.9626465,13.6123047 Z" id="XLS" fill="#000000"></path>
                <rect id="Rectangle-47" fill="#979797" x="3" y="3" width="3" height="1"></rect>
                <rect id="Rectangle-47" fill="#979797" x="3" y="5" width="3" height="1"></rect>
                <rect id="Rectangle-47" fill="#979797" x="3" y="7" width="3" height="1"></rect>
                <rect id="Rectangle-47" fill="#979797" x="7" y="3" width="2" height="1"></rect>
                <rect id="Rectangle-47" fill="#979797" x="7" y="5" width="2" height="1"></rect>
                <rect id="Rectangle-47" fill="#979797" x="7" y="7" width="2" height="1"></rect>
                <rect id="Rectangle-47" fill="#979797" x="10" y="3" width="1" height="1"></rect>
                <rect id="Rectangle-47" fill="#979797" x="10" y="5" width="1" height="1"></rect>
                <rect id="Rectangle-47" fill="#979797" x="10" y="7" width="1" height="1"></rect>
                <polygon id="Path-3" fill="#000000" points="0 17.9985352 0 0 14 0 14 9.01416016 13.0596924 9.01416016 13.0596924 1 1 1 1 16.9985352 13.0596924 16.9985352 13.0596924 16.0297852 14 16.0297852 14 17.9985352"></polygon>
            </g>
        </g>
    </g>
</svg>