<?xml version="1.0" encoding="utf-8"?>
<svg viewBox="0 0 512 512" xmlns="http://www.w3.org/2000/svg">
  <path d="M 375.985 0.479 L 375.985 512.586 L 512.349 512.586 L 512.349 0.479 L 375.985 0.479 Z M 490.818 491.055 L 397.516 491.055 L 397.516 22.01 L 490.817 22.01 L 490.817 490.167 L 490.818 491.055 Z"/>
  <g transform="matrix(1, 0, 0, 1, -6.000005, -6.000025)"/>
  <g transform="matrix(1, 0, 0, 1, -6.000005, -6.000025)"/>
  <g transform="matrix(1, 0, 0, 1, -6.000005, -6.000025)"/>
  <g transform="matrix(1, 0, 0, 1, -6.000005, -6.000025)"/>
  <g transform="matrix(1, 0, 0, 1, -6.000005, -6.000025)"/>
  <g transform="matrix(1, 0, 0, 1, -6.000005, -6.000025)"/>
  <g transform="matrix(1, 0, 0, 1, -6.000005, -6.000025)"/>
  <g transform="matrix(1, 0, 0, 1, -6.000005, -6.000025)"/>
  <g transform="matrix(1, 0, 0, 1, -6.000005, -6.000025)"/>
  <g transform="matrix(1, 0, 0, 1, -6.000005, -6.000025)"/>
  <g transform="matrix(1, 0, 0, 1, -6.000005, -6.000025)"/>
  <g transform="matrix(1, 0, 0, 1, -6.000005, -6.000025)"/>
  <g transform="matrix(1, 0, 0, 1, -6.000005, -6.000025)"/>
  <g transform="matrix(1, 0, 0, 1, -6.000005, -6.000025)"/>
  <g transform="matrix(1, 0, 0, 1, -6.000005, -6.000025)"/>
  <path d="M -0.024 0.239 L -0.024 136.603 L 336.554 136.603 L 336.554 0.239 L -0.024 0.239 Z M 315.436 115.072 L 22.212 115.072 L 22.212 21.77 L 315.433 21.77 L 315.433 115.072 L 315.436 115.072 Z"/>
  <path d="M -0.18 376.553 L -0.18 512.917 L 336.398 512.917 L 336.398 376.553 L -0.18 376.553 Z M 315.28 491.386 L 22.056 491.386 L 22.056 398.084 L 315.277 398.084 L 315.277 491.386 L 315.28 491.386 Z"/>
  <path d="M -0.102 188.396 L -0.102 324.76 L 336.476 324.76 L 336.476 188.396 L -0.102 188.396 Z M 315.358 303.229 L 22.134 303.229 L 22.134 209.927 L 315.355 209.927 L 315.355 303.229 L 315.358 303.229 Z"/>
</svg>